<?xml version="1.0" encoding="iso-8859-1"?>
<!-- Generator: Adobe Illustrator 18.0.0, SVG Export Plug-In . SVG Version: 6.00 Build 0)  -->
<!DOCTYPE svg PUBLIC "-//W3C//DTD SVG 1.1//EN" "http://www.w3.org/Graphics/SVG/1.1/DTD/svg11.dtd">
<svg version="1.1" id="Capa_1" xmlns="http://www.w3.org/2000/svg" xmlns:xlink="http://www.w3.org/1999/xlink" x="0px" y="0px"
	 viewBox="0 0 480.089 480.089" style="enable-background:new 0 0 480.089 480.089;" xml:space="preserve">
<g>
	<path style="fill:#020202;" d="M74.091,358.106h331.916c19.647,0,35.635-15.979,35.635-35.635V97.216
		c0-19.655-15.988-35.634-35.635-35.634H74.091c-19.647,0-35.635,15.979-35.635,35.634v225.255
		C38.456,342.126,54.443,358.106,74.091,358.106z M71.479,97.216c0-1.435,1.169-2.612,2.612-2.612h331.916
		c1.443,0,2.612,1.178,2.612,2.612v225.255c0,1.436-1.169,2.613-2.612,2.613H74.091c-1.443,0-2.612-1.178-2.612-2.613V97.216z"/>
	<path style="fill:#020202;" d="M467.135,371.618H12.956C5.797,371.618,0,377.422,0,384.581c0,18.737,15.189,33.926,33.934,33.926
		h412.222c18.745,0,33.934-15.188,33.934-33.926C480.089,377.422,474.294,371.618,467.135,371.618z"/>
	<path style="fill:#020202;" d="M223.531,299.898h33.022c5.418,0,9.803-4.386,9.803-9.803V182.772c0-5.419-4.385-9.804-9.803-9.804
		h-33.022c-5.42,0-9.805,4.385-9.805,9.804v107.323C213.726,295.512,218.111,299.898,223.531,299.898z"/>
	<path style="fill:#020202;" d="M140.975,299.898h33.023c5.417,0,9.803-4.386,9.803-9.803v-76.364c0-5.419-4.386-9.805-9.803-9.805
		h-33.023c-5.418,0-9.804,4.386-9.804,9.805v76.364C131.17,295.512,135.556,299.898,140.975,299.898z"/>
	<path style="fill:#020202;" d="M306.086,299.898h33.022c5.418,0,9.803-4.386,9.803-9.803V140.462c0-5.419-4.385-9.805-9.803-9.805
		h-33.022c-5.419,0-9.804,4.386-9.804,9.805v149.633C296.282,295.512,300.668,299.898,306.086,299.898z"/>
</g>
<g>
</g>
<g>
</g>
<g>
</g>
<g>
</g>
<g>
</g>
<g>
</g>
<g>
</g>
<g>
</g>
<g>
</g>
<g>
</g>
<g>
</g>
<g>
</g>
<g>
</g>
<g>
</g>
<g>
</g>
</svg>
